<svg width="73" height="72" viewBox="0 0 73 72" fill="none" xmlns="http://www.w3.org/2000/svg">
<path d="M64.3964 59.2152C64.4127 59.1911 64.4372 59.167 64.4535 59.1429C69.79 52.883 73 44.8152 73 36C73 27.1848 69.79 19.117 64.4616 12.8571C64.4453 12.833 64.4209 12.817 64.4046 12.7929C64.315 12.6884 64.2335 12.592 64.1439 12.4955C64.1113 12.4554 64.0787 12.4232 64.0461 12.383L63.7121 12.0054L63.7039 11.9973C63.5817 11.8607 63.4513 11.7241 63.3291 11.5875L63.321 11.5795C63.0603 11.3062 62.7996 11.033 62.5307 10.7679L62.5225 10.7598L62.1315 10.3741L62.107 10.35C61.9848 10.2295 61.8626 10.117 61.7404 10.0045C61.6997 9.96429 61.6589 9.92411 61.6101 9.88393C61.5286 9.80357 61.4471 9.73125 61.3656 9.65893C61.3412 9.63482 61.3086 9.61071 61.2842 9.57857C54.7826 3.63214 46.0731 0 36.5 0C26.9269 0 18.2174 3.63214 11.7077 9.57857C11.6833 9.60268 11.6507 9.62679 11.6262 9.65893C11.5448 9.73125 11.4633 9.81161 11.3818 9.89196C11.3411 9.93214 11.3003 9.97232 11.2515 10.0125C11.1292 10.125 11.007 10.2455 10.8848 10.358L10.8604 10.3821L10.4693 10.7679L10.4612 10.7759C10.1923 11.0411 9.93158 11.3143 9.67087 11.5875L9.66272 11.5955C9.53237 11.7321 9.41016 11.8687 9.28795 12.0054L9.2798 12.0134C9.16574 12.1339 9.05167 12.2625 8.94576 12.3911C8.91317 12.4312 8.88058 12.4634 8.84799 12.5036C8.75837 12.6 8.6769 12.7045 8.58728 12.8009C8.57098 12.825 8.54654 12.8411 8.53025 12.8652C3.21004 19.117 0 27.1848 0 36C0 44.8152 3.21004 52.883 8.53839 59.1429C8.55469 59.167 8.57913 59.1911 8.59542 59.2152L8.84799 59.5125C8.88058 59.5527 8.91317 59.5848 8.94576 59.625L9.2798 60.0027C9.2798 60.0107 9.28795 60.0107 9.28795 60.0187C9.41016 60.1554 9.53237 60.292 9.66272 60.4205L9.67087 60.4286C9.93158 60.7018 10.1923 60.975 10.453 61.2402L10.4612 61.2482C10.5915 61.3768 10.7137 61.5054 10.8441 61.6259L10.8685 61.65C11.1374 61.9152 11.4144 62.1723 11.6914 62.4214C18.2174 68.3679 26.9269 72 36.5 72C46.0731 72 54.7826 68.3679 61.2923 62.4214C61.5699 62.1705 61.8415 61.9133 62.107 61.65L62.1315 61.6259C62.2618 61.4973 62.3922 61.3768 62.5144 61.2482L62.5225 61.2402C62.7914 60.975 63.0521 60.7018 63.3047 60.4286L63.3128 60.4205C63.435 60.2839 63.5654 60.1554 63.6876 60.0187C63.6876 60.0107 63.6958 60.0107 63.6958 60.0027C63.8098 59.8821 63.9239 59.7536 64.0298 59.625C64.0624 59.5848 64.095 59.5527 64.1276 59.5125C64.2197 59.4156 64.3093 59.3165 64.3964 59.2152ZM64.7305 47.7562C63.6061 50.3759 62.1233 52.8027 60.3146 55.0045C58.2776 53.2681 56.0505 51.7614 53.6745 50.5125C54.6196 46.7437 55.2062 42.6054 55.361 38.25H67.0525C66.808 41.5366 66.0259 44.7268 64.7305 47.7562ZM67.0525 33.75H55.361C55.2062 29.3946 54.6196 25.2562 53.6745 21.4875C56.0617 20.2339 58.2859 18.7232 60.3146 16.9955C64.2463 21.7685 66.5981 27.6166 67.0525 33.75ZM48.4195 8.15625C51.654 9.50625 54.5952 11.3705 57.1861 13.717C55.681 14.9809 54.061 16.1053 52.3465 17.0759C51.0674 13.4598 49.4298 10.3179 47.5233 7.80268C47.8248 7.91518 48.1262 8.03571 48.4195 8.15625ZM41.0381 64.4545C40.2885 65.033 39.539 65.475 38.7812 65.7723V50.8661C42.014 51.0885 45.1931 51.7986 48.2077 52.9714C47.5315 54.9482 46.7493 56.7723 45.845 58.4196C44.4273 61.0232 42.7653 63.1045 41.0381 64.4545ZM45.845 13.5804C46.7412 15.2357 47.5315 17.0598 48.2077 19.0286C45.1931 20.2014 42.014 20.9115 38.7812 21.1339V6.23571C39.5308 6.53304 40.2885 6.96696 41.0381 7.55357C42.7653 8.89554 44.4273 10.9768 45.845 13.5804ZM38.7812 46.358V38.25H50.7985C50.6682 41.8018 50.2201 45.2491 49.4705 48.5196L49.4461 48.6161C46.0269 47.3372 42.4313 46.5759 38.7812 46.358ZM38.7812 33.75V25.642C42.5127 25.417 46.0975 24.6375 49.4461 23.3839L49.4705 23.4804C50.2201 26.7509 50.6682 30.1902 50.7985 33.75H38.7812ZM34.2188 38.25V46.358C30.4873 46.583 26.9025 47.3625 23.5539 48.6161L23.5295 48.5196C22.7799 45.2491 22.3318 41.8098 22.2015 38.25H34.2188ZM22.2015 33.75C22.3318 30.1982 22.7799 26.7509 23.5295 23.4804L23.5539 23.3839C26.9025 24.6375 30.4791 25.417 34.2188 25.642V33.75H22.2015ZM34.2188 50.8661V65.7643C33.4692 65.467 32.7115 65.033 31.9619 64.4464C30.2347 63.1045 28.5645 61.0152 27.1469 58.4116C26.2507 56.7562 25.4604 54.9321 24.7842 52.9634C27.815 51.7902 30.968 51.0911 34.2188 50.8661ZM34.2188 21.1339C30.986 20.9115 27.8069 20.2014 24.7923 19.0286C25.4685 17.0518 26.2507 15.2277 27.155 13.5804C28.5727 10.9768 30.2347 8.8875 31.9701 7.54554C32.7196 6.96696 33.4692 6.525 34.2269 6.22768V21.1339H34.2188ZM24.5805 8.15625C24.8819 8.03571 25.1752 7.91518 25.4767 7.80268C23.5702 10.3179 21.9326 13.4598 20.6535 17.0759C18.9425 16.1116 17.3212 14.9866 15.814 13.717C18.4048 11.3705 21.346 9.50625 24.5805 8.15625ZM8.26953 24.2437C9.39386 21.6241 10.8767 19.1973 12.6854 16.9955C14.7141 18.7232 16.9383 20.2339 19.3254 21.4875C18.3804 25.2562 17.7938 29.3946 17.639 33.75H5.94754C6.19196 30.4634 6.97411 27.2732 8.26953 24.2437ZM5.94754 38.25H17.639C17.7938 42.6054 18.3804 46.7437 19.3254 50.5125C16.9495 51.7614 14.7224 53.2681 12.6854 55.0045C8.75372 50.2315 6.4019 44.3834 5.94754 38.25ZM24.5805 63.8438C21.346 62.4937 18.4048 60.6295 15.814 58.283C17.3212 57.0134 18.9425 55.8964 20.6535 54.9241C21.9326 58.5402 23.5702 61.6821 25.4767 64.1973C25.1752 64.0848 24.8738 63.9643 24.5805 63.8438ZM48.4195 63.8438C48.1181 63.9643 47.8248 64.0848 47.5233 64.1973C49.4298 61.6821 51.0674 58.5402 52.3465 54.9241C54.0575 55.8884 55.6788 57.0134 57.1861 58.283C54.6096 60.6197 51.644 62.5008 48.4195 63.8438Z" fill="white"/>
</svg>
